<svg width="24" height="24" viewBox="0 0 24 24" fill="none" xmlns="http://www.w3.org/2000/svg">
<path d="M20.9996 20H17.9996C17.7344 20 17.4801 19.8946 17.2925 19.7071C17.105 19.5196 16.9996 19.2652 16.9996 19V16C18.1933 15.989 19.3436 15.5513 20.2426 14.7661C21.1416 13.9809 21.7301 12.8999 21.9016 11.7186C22.0731 10.5374 21.8164 9.33369 21.1778 8.32521C20.5392 7.31674 19.5608 6.57 18.4196 6.21999C17.8086 4.81599 16.7541 3.65106 15.4177 2.90371C14.0813 2.15636 12.5367 1.86782 11.0206 2.0823C9.50452 2.29677 8.10057 3.00244 7.0239 4.09116C5.94723 5.17988 5.25723 6.5916 5.05965 8.10999C4.10623 8.33831 3.26987 8.90882 2.70938 9.71318C2.1489 10.5175 1.90333 11.4997 2.01931 12.4732C2.13529 13.4467 2.60474 14.3437 3.33851 14.9938C4.07229 15.644 5.01928 16.0021 5.99965 16H6.99965V19C6.99965 19.2652 6.89429 19.5196 6.70675 19.7071C6.51922 19.8946 6.26486 20 5.99965 20H2.99965C2.73443 20 2.48008 20.1053 2.29254 20.2929C2.105 20.4804 1.99965 20.7348 1.99965 21C1.99965 21.2652 2.105 21.5196 2.29254 21.7071C2.48008 21.8946 2.73443 22 2.99965 22H5.99965C6.7953 22 7.55836 21.6839 8.12097 21.1213C8.68358 20.5587 8.99965 19.7956 8.99965 19V16H10.9996V21C10.9996 21.2652 11.105 21.5196 11.2925 21.7071C11.4801 21.8946 11.7344 22 11.9996 22C12.2649 22 12.5192 21.8946 12.7068 21.7071C12.8943 21.5196 12.9996 21.2652 12.9996 21V16H14.9996V19C14.9996 19.7956 15.3157 20.5587 15.8783 21.1213C16.4409 21.6839 17.204 22 17.9996 22H20.9996C21.2649 22 21.5192 21.8946 21.7068 21.7071C21.8943 21.5196 21.9996 21.2652 21.9996 21C21.9996 20.7348 21.8943 20.4804 21.7068 20.2929C21.5192 20.1053 21.2649 20 20.9996 20ZM5.99965 14C5.46921 14 4.96051 13.7893 4.58543 13.4142C4.21036 13.0391 3.99965 12.5304 3.99965 12C3.99965 11.4696 4.21036 10.9608 4.58543 10.5858C4.96051 10.2107 5.46921 9.99999 5.99965 9.99999C6.26486 9.99999 6.51922 9.89463 6.70675 9.70709C6.89429 9.51956 6.99965 9.2652 6.99965 8.99999C7.0022 7.81726 7.42393 6.67374 8.18992 5.77257C8.9559 4.8714 10.0165 4.27094 11.1834 4.07786C12.3503 3.88478 13.5478 4.11159 14.5632 4.71799C15.5787 5.3244 16.3463 6.27113 16.7296 7.38999C16.7868 7.56183 16.8896 7.71492 17.0269 7.83292C17.1643 7.95092 17.3312 8.0294 17.5096 8.05999C18.2038 8.17973 18.8337 8.53992 19.289 9.07745C19.7442 9.61499 19.9958 10.2956 19.9996 11C19.9996 11.7956 19.6836 12.5587 19.121 13.1213C18.5584 13.6839 17.7953 14 16.9996 14H5.99965Z" fill="#043887"/>
</svg>
