<svg width="163" height="49" viewBox="0 0 163 49" fill="none" xmlns="http://www.w3.org/2000/svg">
<g clip-path="url(#clip0_452_587)">
<path d="M71.7775 42.0421C69.2364 42.076 66.7142 41.6003 64.3594 40.6431C62.2082 39.7618 60.2538 38.4603 58.6102 36.8144C57.0259 35.215 55.7762 33.3152 54.9342 31.226C53.2009 26.8607 53.2194 21.9935 54.9857 17.6415C55.8326 15.5637 57.082 13.6743 58.6616 12.0825C60.2816 10.4782 62.1999 9.20744 64.3079 8.34216C66.5753 7.40386 69.0082 6.93307 71.4614 6.95794C73.1969 6.94535 74.9268 7.1582 76.6077 7.59115C78.1497 7.99589 79.6325 8.59981 81.0189 9.38769C82.348 10.149 83.5695 11.0851 84.6508 12.1709C85.6345 13.1539 86.4937 14.2543 87.2092 15.4473C87.2285 15.48 87.241 15.5162 87.2459 15.5538C87.2508 15.5914 87.248 15.6297 87.2377 15.6662C87.2274 15.7027 87.2098 15.7367 87.1859 15.7661C87.1621 15.7956 87.1325 15.8199 87.099 15.8376L81.8423 18.7017C81.7805 18.7341 81.7087 18.7414 81.6417 18.7222C81.5746 18.703 81.5175 18.6588 81.4821 18.5987C80.5079 16.9674 79.1272 15.6176 77.4753 14.6816C75.6441 13.7082 73.5925 13.2262 71.5202 13.2827C69.9676 13.2694 68.4288 13.5752 66.9987 14.1809C65.6503 14.759 64.4193 15.5801 63.3669 16.6033C62.3319 17.6153 61.5094 18.8245 60.9481 20.1596C60.3708 21.5318 60.0782 23.0073 60.0879 24.4963C60.0703 26.0123 60.363 27.5158 60.9481 28.9141C61.5077 30.248 62.3304 31.4551 63.3669 32.463C64.4238 33.4959 65.6727 34.3114 67.0429 34.8633C68.5339 35.4605 70.1277 35.7582 71.7334 35.7394C73.9669 35.8489 76.1713 35.1952 77.9853 33.8856C79.7992 32.5759 81.1151 30.688 81.7173 28.5312C81.7299 28.4896 81.7326 28.4457 81.7253 28.4029C81.7179 28.3601 81.7008 28.3195 81.6751 28.2845C81.6494 28.2495 81.6159 28.221 81.5773 28.2012C81.5387 28.1814 81.4961 28.1708 81.4527 28.1704H78.306C78.2339 28.1704 78.1647 28.1417 78.1137 28.0906C78.0627 28.0395 78.034 27.9702 78.034 27.898V22.2212C78.033 22.1848 78.0393 22.1486 78.0526 22.1147C78.0658 22.0808 78.0857 22.0499 78.111 22.0238C78.1364 21.9977 78.1667 21.977 78.2002 21.9628C78.2337 21.9487 78.2697 21.9414 78.306 21.9414H88.5326C88.6067 21.9414 88.6778 21.9709 88.7301 22.0234C88.7825 22.0758 88.812 22.147 88.812 22.2212V24.5331C88.821 26.8304 88.415 29.1103 87.6136 31.2628C86.8526 33.3307 85.6908 35.2274 84.195 36.8439C82.6765 38.4641 80.8457 39.7591 78.8133 40.6505C76.592 41.6051 74.1944 42.0793 71.7775 42.0421Z" fill="#5B758D"/>
<path d="M105.119 42.0421C101.628 42.0374 98.2659 40.7241 95.6938 38.3606C94.3536 37.118 93.2805 35.6148 92.5398 33.9429C91.7136 32.0783 91.3046 30.0554 91.3414 28.0158C91.3028 25.96 91.7013 23.9195 92.5104 22.0297C93.2443 20.3653 94.3015 18.8636 95.6203 17.612C96.8998 16.4199 98.3978 15.4873 100.031 14.8657C101.676 14.2441 103.42 13.9248 105.178 13.9232C106.944 13.8995 108.696 14.2404 110.324 14.9246C111.595 15.4542 112.754 16.2185 113.743 17.1776C113.782 17.2132 113.83 17.2368 113.882 17.2455C113.934 17.2542 113.987 17.2476 114.035 17.2265C114.083 17.2055 114.125 17.1709 114.154 17.1269C114.183 17.083 114.198 17.0315 114.199 16.9788V14.2472C114.204 14.1756 114.237 14.1089 114.291 14.0609C114.344 14.0129 114.414 13.9874 114.485 13.9895H120.367C120.403 13.9895 120.439 13.9967 120.473 14.0109C120.506 14.025 120.537 14.0458 120.562 14.0719C120.587 14.0979 120.607 14.1288 120.62 14.1628C120.634 14.1967 120.64 14.2329 120.639 14.2693V41.7402C120.64 41.7766 120.634 41.8128 120.62 41.8467C120.607 41.8806 120.587 41.9115 120.562 41.9376C120.537 41.9637 120.506 41.9844 120.473 41.9986C120.439 42.0127 120.403 42.02 120.367 42.02H114.485C114.413 42.0181 114.343 41.9877 114.293 41.9355C114.242 41.8832 114.213 41.8131 114.213 41.7402V38.795C114.213 38.7415 114.197 38.6893 114.167 38.6449C114.137 38.6006 114.095 38.566 114.045 38.5456C113.996 38.5252 113.941 38.5198 113.889 38.5301C113.836 38.5404 113.788 38.566 113.75 38.6036C112.769 39.6311 111.595 40.4543 110.295 41.026C108.661 41.7285 106.897 42.0748 105.119 42.0421ZM106.17 36.1002C107.316 36.1144 108.452 35.9017 109.515 35.4744C110.504 35.075 111.4 34.476 112.147 33.7146C112.884 32.9596 113.477 32.0763 113.897 31.1082C114.331 30.0991 114.551 29.0111 114.544 27.9127C114.547 26.8289 114.327 25.7561 113.897 24.7614C113.48 23.798 112.887 22.9214 112.147 22.177C111.395 21.4295 110.5 20.8411 109.515 20.4467C107.373 19.6027 104.99 19.6027 102.847 20.4467C101.847 20.8416 100.929 21.421 100.142 22.1549C99.3768 22.8787 98.7666 23.7504 98.3478 24.7172C97.9153 25.7266 97.6951 26.8143 97.7009 27.9127C97.695 29.0182 97.9152 30.1132 98.3478 31.1303C98.7639 32.1115 99.3741 32.9982 100.142 33.7367C100.924 34.4846 101.842 35.0746 102.847 35.4744C103.905 35.8895 105.034 36.0946 106.17 36.0781V36.1002Z" fill="#5B758D"/>
<path d="M124.623 22.501H130.578C130.65 22.501 130.72 22.5297 130.771 22.5808C130.822 22.6319 130.85 22.7011 130.85 22.7734V41.7181C130.851 41.7545 130.845 41.7907 130.832 41.8246C130.818 41.8585 130.799 41.8894 130.773 41.9155C130.748 41.9416 130.718 41.9623 130.684 41.9765C130.651 41.9906 130.615 41.9979 130.578 41.9979H124.623C124.549 41.9979 124.478 41.9684 124.426 41.9159C124.373 41.8635 124.344 41.7923 124.344 41.7181V22.7734C124.346 22.7005 124.376 22.6312 124.428 22.5803C124.48 22.5294 124.55 22.501 124.623 22.501Z" fill="#5B758D"/>
<path d="M147.451 42.0421C143.961 42.0374 140.598 40.7241 138.026 38.3606C136.686 37.118 135.613 35.6148 134.872 33.9429C134.041 32.067 133.632 30.0309 133.674 27.979C133.634 25.9223 134.035 23.881 134.85 21.9929C135.565 20.3533 136.604 18.8761 137.906 17.6509C139.208 16.4258 140.744 15.4782 142.423 14.8657C144.067 14.2427 145.811 13.9234 147.569 13.9232C149.335 13.8989 151.087 14.2398 152.715 14.9246C153.986 15.4542 155.146 16.2185 156.134 17.1776C156.173 17.2132 156.221 17.2368 156.273 17.2455C156.325 17.2542 156.378 17.2476 156.426 17.2265C156.475 17.2055 156.516 17.1709 156.545 17.1269C156.574 17.083 156.589 17.0315 156.59 16.9788V14.2472C156.59 14.173 156.619 14.1018 156.672 14.0493C156.724 13.9969 156.795 13.9674 156.869 13.9674H162.751C162.825 13.9674 162.896 13.9969 162.948 14.0493C163.001 14.1018 163.03 14.173 163.03 14.2472V41.7181C163.03 41.7923 163.001 41.8635 162.948 41.9159C162.896 41.9684 162.825 41.9979 162.751 41.9979H156.869C156.795 41.9979 156.724 41.9684 156.672 41.9159C156.619 41.8635 156.59 41.7923 156.59 41.7181V38.7729C156.589 38.7194 156.573 38.6672 156.543 38.6228C156.513 38.5785 156.471 38.5439 156.422 38.5235C156.372 38.5031 156.318 38.4977 156.265 38.508C156.213 38.5183 156.165 38.5439 156.127 38.5815C155.147 39.6106 153.972 40.4341 152.671 41.0039C151.026 41.7212 149.246 42.0753 147.451 42.0421ZM148.503 36.1002C149.65 36.1139 150.79 35.9012 151.855 35.4744C152.843 35.0731 153.738 34.4744 154.487 33.7146C155.219 32.9568 155.809 32.0741 156.23 31.1082C156.666 30.1001 156.887 29.0115 156.877 27.9127C156.883 26.8285 156.663 25.755 156.23 24.7614C155.813 23.7998 155.222 22.9236 154.487 22.177C153.733 21.4312 152.838 20.843 151.855 20.4467C149.71 19.6022 147.325 19.6022 145.18 20.4467C144.179 20.8416 143.261 21.421 142.474 22.1549C141.709 22.8787 141.099 23.7504 140.68 24.7172C140.25 25.727 140.032 26.8148 140.041 27.9127C140.032 29.0177 140.25 30.1127 140.68 31.1303C141.096 32.1115 141.707 32.9982 142.474 33.7367C143.256 34.4846 144.175 35.0746 145.18 35.4744C146.238 35.8881 147.367 36.0931 148.503 36.0781V36.1002Z" fill="#5B758D"/>
<path d="M127.608 20.4909C129.411 20.4909 130.872 19.0273 130.872 17.2218C130.872 15.4163 129.411 13.9527 127.608 13.9527C125.805 13.9527 124.344 15.4163 124.344 17.2218C124.344 19.0273 125.805 20.4909 127.608 20.4909Z" fill="#5B758D"/>
<path d="M24.475 1.32399e-05C18.033 -0.00669581 11.8494 2.5366 7.27148 7.07575C10.3961 9.42451 18.1671 9.71166 22.5047 12.0236C31.6947 16.9273 31.6211 27.1102 31.6211 27.1102C31.6211 27.1102 28.3128 17.5384 15.6748 15.4915C16.0277 15.5578 22.1004 16.7138 27.4379 23.5465C29.6427 26.3759 31.0174 29.7641 31.4079 33.3318C31.9536 38.5585 31.0665 43.8354 28.8421 48.5951C34.8316 47.4808 40.1906 44.1689 43.871 39.3072C47.5514 34.4454 49.2885 28.3835 48.7424 22.307C48.1963 16.2306 45.4064 10.5767 40.9184 6.45117C36.4303 2.32566 30.567 0.0253 24.475 1.32399e-05Z" fill="#043887"/>
<path d="M28.717 27.979C28.5019 27.4825 28.1749 27.0426 27.7616 26.6939C27.3484 26.3452 26.8601 26.097 26.335 25.9689C18.9022 24.1503 8.22716 27.6256 6.48475 7.89304C3.28644 11.3569 1.15494 15.672 0.346387 20.3198C-0.462162 24.9676 0.0866458 29.7504 1.92685 34.0934C3.76706 38.4364 6.82038 42.1548 10.7199 44.8017C14.6194 47.4487 19.1992 48.9117 23.9089 49.0148C27.1217 44.2951 31.9372 35.3419 28.717 27.979Z" fill="#043887"/>
</g>
<defs>
<clipPath id="clip0_452_587">
<rect width="163" height="49" fill="white"/>
</clipPath>
</defs>
</svg>
